<svg width="56" height="56" viewBox="0 0 56 56" fill="none" xmlns="http://www.w3.org/2000/svg">
<mask id="path-1-inside-1_296_2681" fill="white">
<path d="M49.1592 0.00976562C52.9697 0.203017 55.9999 3.3534 56 7.21191V48.7881L55.9902 49.1592C55.8032 52.8468 52.8468 55.8032 49.1592 55.9902L48.7881 56H7.21191C3.3534 55.9999 0.203017 52.9697 0.00976562 49.1592L0 48.7881V7.21191C0.000112067 3.22893 3.22893 0.000112064 7.21191 0H48.7881L49.1592 0.00976562ZM7.21191 6C6.54264 6.00011 6.00011 6.54264 6 7.21191V48.7881C6.00011 49.4574 6.54264 49.9999 7.21191 50H48.7881C49.4574 49.9999 49.9999 49.4574 50 48.7881V7.21191C49.9999 6.54264 49.4574 6.00011 48.7881 6H7.21191Z"/>
</mask>
<path d="M49.1592 0.00976562L49.4631 -5.98253L49.3901 -5.98624L49.317 -5.98816L49.1592 0.00976562ZM56 7.21191H62V7.21175L56 7.21191ZM56 48.7881L61.9979 48.9459L62 48.867V48.7881H56ZM55.9902 49.1592L61.9825 49.4631L61.9862 49.3901L61.9882 49.317L55.9902 49.1592ZM49.1592 55.9902L49.317 61.9882L49.3901 61.9862L49.4631 61.9825L49.1592 55.9902ZM48.7881 56V62H48.867L48.9459 61.9979L48.7881 56ZM7.21191 56L7.21175 62H7.21191V56ZM0.00976562 49.1592L-5.98816 49.317L-5.98624 49.3901L-5.98253 49.4631L0.00976562 49.1592ZM0 48.7881H-6V48.867L-5.99792 48.9459L0 48.7881ZM0 7.21191L-6 7.21175V7.21191H0ZM7.21191 0V-6H7.21175L7.21191 0ZM48.7881 0L48.9459 -5.99792L48.867 -6H48.7881V0ZM7.21191 6V-8.40783e-08L7.21091 8.40783e-08L7.21191 6ZM6 7.21191L0 7.21091V7.21191H6ZM6 48.7881H-8.27304e-08L8.27304e-08 48.7891L6 48.7881ZM7.21191 50L7.21091 56H7.21191V50ZM48.7881 50V56H48.7891L48.7881 50ZM50 48.7881L56 48.7891V48.7881H50ZM50 7.21191H56V7.21091L50 7.21191ZM48.7881 6L48.7891 0H48.7881V6ZM49.1592 0.00976562L48.8553 6.00206C49.4911 6.03431 50 6.56582 50 7.21208L56 7.21191L62 7.21175C61.9998 0.140975 56.4483 -5.62828 49.4631 -5.98253L49.1592 0.00976562ZM56 7.21191H50V48.7881H56H62V7.21191H56ZM56 48.7881L50.0021 48.6302L49.9923 49.0013L55.9902 49.1592L61.9882 49.317L61.9979 48.9459L56 48.7881ZM55.9902 49.1592L49.9979 48.8553C49.9669 49.4682 49.4682 49.9669 48.8553 49.9979L49.1592 55.9902L49.4631 61.9825C56.2254 61.6396 61.6396 56.2254 61.9825 49.4631L55.9902 49.1592ZM49.1592 55.9902L49.0013 49.9923L48.6302 50.0021L48.7881 56L48.9459 61.9979L49.317 61.9882L49.1592 55.9902ZM48.7881 56V50H7.21191V56V62H48.7881V56ZM7.21191 56L7.21208 50C6.56582 50 6.03431 49.4911 6.00206 48.8553L0.00976562 49.1592L-5.98253 49.4631C-5.62828 56.4483 0.140975 61.9998 7.21175 62L7.21191 56ZM0.00976562 49.1592L6.00769 49.0013L5.99792 48.6302L0 48.7881L-5.99792 48.9459L-5.98816 49.317L0.00976562 49.1592ZM0 48.7881H6V7.21191H0H-6V48.7881H0ZM0 7.21191L6 7.21208C6.00002 6.54268 6.54268 6.00002 7.21208 6L7.21191 0L7.21175 -6C-0.0848116 -5.99979 -5.99979 -0.0848116 -6 7.21175L0 7.21191ZM7.21191 0V6H48.7881V0V-6H7.21191V0ZM48.7881 0L48.6302 5.99792L49.0013 6.00769L49.1592 0.00976562L49.317 -5.98816L48.9459 -5.99792L48.7881 0ZM7.21191 6L7.21091 8.40783e-08C3.22871 0.000666743 0.000666743 3.22871 8.40783e-08 7.21091L6 7.21191L12 7.21292C11.9996 9.85657 9.85657 11.9996 7.21292 12L7.21191 6ZM6 7.21191H0V48.7881H6H12V7.21191H6ZM6 48.7881L8.27304e-08 48.7891C0.000661379 52.7713 3.22872 55.9993 7.21091 56L7.21191 50L7.21292 44C9.85656 44.0004 11.9996 46.1434 12 48.7871L6 48.7881ZM7.21191 50V56H48.7881V50V44H7.21191V50ZM48.7881 50L48.7891 56C52.7713 55.9993 55.9993 52.7713 56 48.7891L50 48.7881L44 48.7871C44.0004 46.1434 46.1434 44.0004 48.7871 44L48.7881 50ZM50 48.7881H56V7.21191H50H44V48.7881H50ZM50 7.21191L56 7.21091C55.9993 3.22872 52.7713 0.000661379 48.7891 8.27303e-08L48.7881 6L48.7871 12C46.1434 11.9996 44.0004 9.85656 44 7.21292L50 7.21191ZM48.7881 6V0H7.21191V6V12H48.7881V6Z" fill="#D9EBE1" mask="url(#path-1-inside-1_296_2681)"/>
</svg>
