<svg width="64" height="53" viewBox="0 0 64 53" fill="none" xmlns="http://www.w3.org/2000/svg">
<mask id="path-1-inside-1_296_2676" fill="white">
<path d="M18.8896 6.37695C25.2905 -2.12645 38.0552 -2.12645 44.4561 6.37695L60.1006 27.1592C67.9133 37.5386 60.746 52.3113 47.9316 52.7705L47.3174 52.7812H16.0293C3.03771 52.7812 -4.45454 38.1705 2.88574 27.6562L3.24609 27.1592L18.8896 6.37695ZM39.6631 9.98535C35.6625 4.67073 27.6842 4.67072 23.6836 9.98535L8.04004 30.7676C3.07934 37.3577 7.78076 46.7812 16.0293 46.7812H47.3174C55.5657 46.7811 60.2671 37.3576 55.3066 30.7676L39.6631 9.98535Z"/>
</mask>
<path d="M18.8896 6.37695L14.096 2.76854L14.096 2.76856L18.8896 6.37695ZM44.4561 6.37695L39.6624 9.98537L39.6625 9.98549L44.4561 6.37695ZM60.1006 27.1592L64.8943 23.5509L64.8942 23.5506L60.1006 27.1592ZM47.9316 52.7705L48.0366 58.7696L48.0915 58.7686L48.1465 58.7667L47.9316 52.7705ZM47.3174 52.7812V58.7812H47.3698L47.4223 58.7803L47.3174 52.7812ZM16.0293 52.7812L16.0293 58.7812H16.0293V52.7812ZM2.88574 27.6562L-1.97203 24.1346L-2.00339 24.1779L-2.03397 24.2217L2.88574 27.6562ZM3.24609 27.1592L-1.5476 23.5508L-1.58003 23.5939L-1.61168 23.6375L3.24609 27.1592ZM39.6631 9.98535L44.4568 6.37696L44.4568 6.37693L39.6631 9.98535ZM23.6836 9.98535L18.8899 6.37693L18.8899 6.37696L23.6836 9.98535ZM8.04004 30.7676L12.8337 34.376L12.8337 34.376L8.04004 30.7676ZM16.0293 46.7812L16.0293 52.7812H16.0293V46.7812ZM47.3174 46.7812V52.7812H47.3175L47.3174 46.7812ZM55.3066 30.7676L60.1004 27.1592L60.1003 27.1592L55.3066 30.7676ZM18.8896 6.37695L23.6833 9.98537C27.6839 4.67074 35.6618 4.67074 39.6624 9.98537L44.4561 6.37695L49.2497 2.76854C40.4485 -8.92365 22.8972 -8.92365 14.096 2.76854L18.8896 6.37695ZM44.4561 6.37695L39.6625 9.98549L55.307 30.7677L60.1006 27.1592L64.8942 23.5506L49.2496 2.76842L44.4561 6.37695ZM60.1006 27.1592L55.3068 30.7675C60.1851 37.2483 55.7128 46.4878 47.7168 46.7744L47.9316 52.7705L48.1465 58.7667C65.7792 58.1348 75.6416 37.8289 64.8943 23.5509L60.1006 27.1592ZM47.9316 52.7705L47.8267 46.7714L47.2125 46.7822L47.3174 52.7812L47.4223 58.7803L48.0366 58.7696L47.9316 52.7705ZM47.3174 52.7812V46.7812H16.0293V52.7812V58.7812H47.3174V52.7812ZM16.0293 52.7812L16.0293 46.7812C7.91739 46.7812 3.22526 37.6515 7.80546 31.0908L2.88574 27.6562L-2.03397 24.2217C-12.1343 38.6895 -1.84197 58.7812 16.0293 58.7812L16.0293 52.7812ZM2.88574 27.6562L7.74352 31.1779L8.10387 30.6808L3.24609 27.1592L-1.61168 23.6375L-1.97203 24.1346L2.88574 27.6562ZM3.24609 27.1592L8.03979 30.7676L23.6833 9.98534L18.8896 6.37695L14.096 2.76856L-1.5476 23.5508L3.24609 27.1592ZM39.6631 9.98535L44.4568 6.37693C38.0559 -2.12646 25.2908 -2.12648 18.8899 6.37693L23.6836 9.98535L28.4773 13.5938C30.0775 11.4679 33.2692 11.4679 34.8694 13.5938L39.6631 9.98535ZM23.6836 9.98535L18.8899 6.37696L3.24634 27.1592L8.04004 30.7676L12.8337 34.376L28.4773 13.5937L23.6836 9.98535ZM8.04004 30.7676L3.24636 27.1592C-4.69073 37.7034 2.83161 52.7812 16.0293 52.7812L16.0293 46.7812L16.0293 40.7812C12.7299 40.7812 10.8494 37.0121 12.8337 34.376L8.04004 30.7676ZM16.0293 46.7812V52.7812H47.3174V46.7812V40.7812H16.0293V46.7812ZM47.3174 46.7812L47.3175 52.7812C60.5148 52.7809 68.0372 37.7034 60.1004 27.1592L55.3066 30.7676L50.5129 34.3759C52.497 37.0119 50.6166 40.7812 47.3172 40.7812L47.3174 46.7812ZM55.3066 30.7676L60.1003 27.1592L44.4568 6.37696L39.6631 9.98535L34.8694 13.5937L50.5129 34.376L55.3066 30.7676Z" fill="#D9EBE1" mask="url(#path-1-inside-1_296_2676)"/>
</svg>
